<?xml version="1.0" standalone="no"?>
<!DOCTYPE svg PUBLIC "-//W3C//DTD SVG 20010904//EN"
 "http://www.w3.org/TR/2001/REC-SVG-20010904/DTD/svg10.dtd">
<svg version="1.0" xmlns="http://www.w3.org/2000/svg"
 width="755.000000pt" height="759.000000pt" viewBox="0 0 755.000000 759.000000"
 preserveAspectRatio="xMidYMid meet">
<metadata>
Created by potrace 1.15, written by Peter Selinger 2001-2017
</metadata>
<g transform="translate(0.000000,759.000000) scale(0.100000,-0.100000)"
fill="#000000" stroke="none">
<path d="M2247 4819 c-1591 -796 -1634 -819 -1581 -836 7 -2 727 354 1600 791
l1589 794 40 -23 c78 -44 2751 -1469 2849 -1517 95 -48 128 -52 113 -15 -5 14
-2962 1595 -2994 1601 -10 2 -737 -356 -1616 -795z"/>
<path d="M3759 5472 c-270 -137 -2702 -1448 -2706 -1459 -15 -37 18 -33 113
15 93 46 2547 1360 2645 1416 l45 26 35 -24 c44 -29 2369 -1370 2473 -1425 57
-31 81 -40 89 -32 8 8 8 17 2 27 -16 25 -2554 1485 -2590 1489 -22 3 -53 -6
-106 -33z"/>
<path d="M3775 5377 c-194 -105 -2318 -1352 -2322 -1364 -14 -35 16 -34 83 2
62 33 2213 1288 2290 1336 l32 20 28 -24 c30 -24 2020 -1291 2107 -1341 36
-21 52 -25 60 -17 8 8 9 16 1 29 -6 9 -483 317 -1060 684 -577 367 -1059 674
-1071 683 -41 29 -83 27 -148 -8z"/>
<path d="M3770 5270 c-172 -103 -1904 -1237 -1914 -1252 -18 -29 7 -45 38 -25
14 9 40 25 58 35 62 35 1813 1176 1850 1205 l37 30 43 -35 c56 -45 1626 -1163
1703 -1212 54 -35 60 -37 71 -21 10 14 10 20 1 29 -13 13 -1682 1202 -1760
1254 -26 18 -51 32 -55 32 -4 -1 -36 -18 -72 -40z"/>
<path d="M3805 5186 c-128 -92 -1543 -1156 -1553 -1168 -10 -12 -10 -18 2 -27
12 -10 28 -2 86 39 115 82 1431 1070 1474 1107 l40 33 45 -43 c41 -39 1150
-991 1289 -1106 50 -41 54 -43 70 -27 15 15 15 17 -3 35 -11 11 -325 280 -697
599 -471 403 -684 579 -700 579 -13 0 -36 -9 -53 -21z"/>
<path d="M3263 4588 c-699 -640 -631 -574 -611 -594 16 -16 19 -15 55 16 90
78 966 882 1051 964 l93 91 57 -65 c149 -169 876 -964 906 -990 29 -26 35 -28
46 -15 10 13 9 19 -6 37 -93 108 -924 1020 -951 1043 -19 17 -42 31 -53 32
-12 1 -227 -189 -587 -519z"/>
<path d="M3250 2645 l0 -55 605 0 605 0 0 55 0 55 -605 0 -605 0 0 -55z m1195
0 l0 -40 -590 0 -590 0 -3 28 c-7 61 -46 57 595 55 l588 -3 0 -40z"/>
</g>
</svg>
